# xmcd
#
# Track frame offsets:
#	150
#	20662
#	34820
#	53295
#	76177
#	92040
#	115475
#	136395
#	151315
#	161922
#	189140
#	203817
#
# Disc length: 3008 seconds
#
# Revision: 0
# Processed by: cddbd v1.5.1PL0 Copyright (c) Steve Scherf et al.
# Submitted via: dBpowerAMP V4.0
#
DISCID=920bbe0c
DTITLE=LIL'ED  - Efes Pilsen Blues Classics
DYEAR=1900
DGENRE=
TTITLE0=Old Oak Tree
TTITLE1=Singing Slide
TTITLE2=She's Fine, She's Mine
TTITLE3=Older Woman
TTITLE4=She Don't Love Me No More
TTITLE5=Upset Man
TTITLE6=Once In A Lifetime
TTITLE7=Bluesmobile
TTITLE8=Out Of The House
TTITLE9=Master Charge
TTITLE10=Chicken, Gravy and Biscuits
TTITLE11=Too Late
EXTD=
EXTT0=
EXTT1=
EXTT2=
EXTT3=
EXTT4=
EXTT5=
EXTT6=
EXTT7=
EXTT8=
EXTT9=
EXTT10=
EXTT11=
PLAYORDER=
